<?xml version="1.0" encoding="UTF-8"?>
<svg id="Layer_2" data-name="Layer 2" xmlns="http://www.w3.org/2000/svg" viewBox="0 0 1212.46 829.21">
  <defs>
    <style>
      .cls-1 {
        fill: #fffaf5;
        stroke-width: 0px;
      }
    </style>
  </defs>
  <g id="Icon_dark" data-name="Icon dark">
    <path class="cls-1" d="M1190.29,299.95c-23.55-50.36-59.67-83.11-110.42-100.11-39.09-13.1-79.64-17.13-120.5-11.98-10.62,1.34-16.09-.98-20.18-8.54-3.97-7.34-8.56-14.42-12.99-21.27-2.65-4.1-5.4-8.34-7.96-12.56-38.48-63.4-97.15-105.02-179.36-127.22-96.45-26.04-191.87-24.24-283.63,5.35-83.13,26.81-143.06,76.54-178.11,147.8-6.8,13.82-14.67,18.09-30.05,16.32-34.73-3.99-70.49-.86-106.27,9.3-57.18,16.25-98.08,50.98-121.57,103.24C4.38,333.4-1.93,370.88.51,411.69c3.93,65.55,40.51,115.96,108.72,149.83,29.62,14.71,62.47,23.73,94.24,32.45,7.66,2.1,15.31,4.2,22.91,6.38,10.45,2.99,12.1,6.37,12.04,15.68-.12,19.79-.03,39.9.07,59.34.16,32.53.32,66.17-.54,99.2-.49,19.05,3.29,36.05,11.25,50.54l2.25,4.1,5.58-4.26c13.38-10.16,27.94-20.83,43.71-30.11l4.37-2.58c12.16-7.2,24.72-14.65,37.67-19.03l.6-.26c10.66-5.69,22.63-10.3,37.68-14.53,91.26-25.63,192.74-33.6,310.23-24.37,67.65,5.32,117.95,15.64,163.08,33.48,2.47.97,5.03,2.11,7.84,3.46l.3.13c19.08,7.38,39.1,16.48,63.01,28.64,4.29,2.18,8.62,4.35,12.96,6.51,6.81,3.4,13.85,6.92,20.71,10.51l4.12,2.16,1.54-4.39c4.25-12.07,6.08-25.4,5.59-40.73-1.19-37.32-.92-75.35-.66-112.13.1-14.67.21-29.83.22-44.75,0-.66,0-1.33-.01-1.99-.08-8.47.2-11.96,8.01-13.32,56.49-9.85,103.5-26.64,143.71-51.33,41.74-25.63,69.44-59.83,82.34-101.63,14.71-47.7,10.08-97.73-13.77-148.72ZM932.15,424.85c3.32-5.75,7.53-11.26,11.6-16.6l1.95-2.56c12.94-17.07,12.43-36.74-1.29-50.12-7.43-7.24-17.56-11.18-27.78-10.82-9.4.34-17.98,4.36-24.16,11.32-12.74,14.35-22.62,31.36-32.16,47.82l-.96,1.66c-4.79,8.26-6.63,10.76-13.31,8.65-64.14-20.23-130.74-25.88-187.43-28.73-7.67-.39-12.34-1.84-14.69-4.58-2.21-2.59-2.9-7.06-2.16-14.07.95-9.02.5-18.3,0-26.28-1.32-21.26-15.52-35.51-35.34-35.51h-.1c-22.17.05-37.82,14.35-38.96,35.58l-.02.34c-.51,9.55-1.04,19.43.04,29.14.58,5.19.04,8.74-1.65,10.83-1.99,2.46-6.02,3.78-13.91,4.56-40.95,4.08-85.45,9.44-140.04,16.88-14.71,2-29.22,6.19-43.25,10.23l-2.4.69c-7.27,2.09-9.91,1.48-13.38-6.6-8.44-19.62-18.95-44.03-44.07-56.4-16.96-8.35-32.17-5.71-43.97,7.63-10.97,12.41-11.53,30.46-1.38,44.93,1.22,1.74,2.56,3.3,3.86,4.81.8.93,1.6,1.85,2.35,2.81,20.18,25.62,20.03,29.04-2.3,52.2-16.5,17.12-20.34,25.1-30.84,66.93-36.96-8.26-74.9-17.24-107.1-40.07-31.13-22.07-50.67-54.02-55.03-89.96-4.33-35.7,6.93-71.14,31.71-99.81,17.28-19.99,41.15-32.88,70.95-38.33,13.54-2.48,27.36-3.72,41.9-3.72,17.71,0,36.48,1.84,57.07,5.54,33.47,6,48.91-3.55,58.98-36.54,17.01-55.69,55.11-97.13,113.23-123.17,82.03-36.75,173.48-42.15,271.81-16.03,50.33,13.37,91.98,40.03,123.77,79.23,17.29,21.32,29.18,44.2,36.36,69.97,5.61,20.14,21.44,30.48,43.47,28.36,8.55-.82,17.12-2.24,25.41-3.6,4.73-.78,9.61-1.59,14.41-2.27,33.13-4.7,66.46-1.1,99.08,10.71,9.97,3.61,20.37,10.18,30.91,19.54,44.87,39.83,53.59,106.35,36.11,147.65-11.84,27.96-35.41,50.32-68.16,64.65-17.7,7.74-36.83,13.34-55.34,18.74-8.59,2.51-17.47,5.11-26.14,7.89-3.85,1.24-6.69,1.39-7.98.43-1.27-.94-1.91-3.61-1.83-7.5.56-24.74-10.03-46.12-32.4-65.36-12.56-10.8-13.62-16.9-5.43-31.09ZM895.37,673.77l.06,20.8c0,2.14.02,8.64-1.63,9.75-.26.18-1.84.95-7.12-1.21-65.99-26.89-134.65-35.49-193.12-40.37-111.9-9.33-219.36-1.56-319.41,23.08-12.11,2.98-23.88,7.66-35.26,12.19-3.95,1.57-7.9,3.14-11.87,4.64-8.26,3.13-11.03,3.08-11.9,2.48-.69-.47-1.86-2.55-1.92-11.18-.15-19.53-.12-39.39-.09-58.6.01-8.21.03-16.42.03-24.63l-.06-3.82c.01-6.27.05-12.55.08-18.82.1-18.33.2-37.27-.31-55.93-.26-9.5,2.9-15.66,11.28-21.98,27.71-20.91,61.02-29.21,90.08-35.35,127.65-26.99,257.08-26.8,384.7.59,21.91,4.7,43.45,13.97,64.28,22.93,6.1,2.62,12.4,5.34,18.62,7.89,9.28,3.82,13.75,11.98,13.65,24.97-.35,47.53-.21,95.85-.07,142.57Z"/>
  </g>
</svg>