<?xml version="1.0" encoding="utf-8"?>
<!-- Generator: Adobe Illustrator 28.1.0, SVG Export Plug-In . SVG Version: 6.00 Build 0)  -->
<svg version="1.1" id="Layer_1" xmlns="http://www.w3.org/2000/svg" xmlns:xlink="http://www.w3.org/1999/xlink" x="0px" y="0px"
	 viewBox="0 0 800 800" style="enable-background:new 0 0 800 800;" xml:space="preserve">
<style type="text/css">
	.st0{fill:#FFFCF8;}
</style>
<path class="st0" d="M470,400l137.5-137.5c20-20,20-50,0-70l0,0c-7.5-10-20-17.5-32.5-17.5s-25,5-35,15L400,330L262.5,192.5
	c-20-20-52.5-20-70,0c-10,7.5-17.5,20-17.5,35s5,25,15,35L327.5,400L190,537.5c-7.5,10-15,22.5-15,37.5c0,12.5,5,25,15,35
	s22.5,15,35,15s25-5,35-15l137.5-137.5L535,610c20,20,52.5,20,70,0c20-20,20-52.5,0-70L470,400z"/>
</svg>
