<?xml version="1.0" encoding="utf-8"?>
<!-- Generator: Adobe Illustrator 28.1.0, SVG Export Plug-In . SVG Version: 6.00 Build 0)  -->
<svg version="1.1" id="Layer_1" xmlns="http://www.w3.org/2000/svg" xmlns:xlink="http://www.w3.org/1999/xlink" x="0px" y="0px"
	 viewBox="0 0 800 800" style="enable-background:new 0 0 800 800;" xml:space="preserve">
<style type="text/css">
	.st0{fill-rule:evenodd;clip-rule:evenodd;fill:#0F211C;}
</style>
<path class="st0" d="M556.7,409.6c13,13,13,34.1,0,47.1L423.4,590c-13,13-34.1,13-47.1,0L242.9,456.7c-12.8-13.2-12.4-34.3,0.8-47.1
	c12.9-12.5,33.4-12.5,46.3,0l109.8,109.8l109.8-109.8C522.6,396.6,543.7,396.6,556.7,409.6L556.7,409.6z"/>
<path class="st0" d="M556.7,209.6c13,13,13,34.1,0,47.1L423.4,390c-13,13-34.1,13-47.1,0L242.9,256.7c-12.8-13.2-12.4-34.3,0.8-47.1
	c12.9-12.5,33.4-12.5,46.3,0l109.8,109.8l109.8-109.8C522.6,196.6,543.7,196.6,556.7,209.6L556.7,209.6z"/>
</svg>
