<?xml version="1.0" encoding="utf-8"?>
<!-- Generator: Adobe Illustrator 28.1.0, SVG Export Plug-In . SVG Version: 6.00 Build 0)  -->
<svg version="1.1" id="Layer_1" xmlns="http://www.w3.org/2000/svg" xmlns:xlink="http://www.w3.org/1999/xlink" x="0px" y="0px"
	 viewBox="0 0 800 800" style="enable-background:new 0 0 800 800;" xml:space="preserve">
<style type="text/css">
	.st0{fill:none;stroke:#0F211C;stroke-width:66.6667;stroke-miterlimit:133.3333;}
</style>
<path class="st0" d="M600,133.3H200c-36.8,0-67.5,30.3-58.4,66c19.6,76.5,72.1,140.4,143.3,174.6c27.4,13.1,48.5,38.9,48.5,69.3
	v202.8c0,18.4,14.9,33.3,33.4,33.3c5.2,0,10.3-1.2,14.9-3.5l66.7-33.3c11.3-5.6,18.4-17.2,18.4-29.8V443.3
	c0-30.4,21.1-56.2,48.5-69.3c71.2-34.2,123.7-98.1,143.3-174.6C667.5,163.7,636.8,133.3,600,133.3z"/>
</svg>
