<?xml version="1.0" encoding="utf-8"?>
<!-- Generator: Adobe Illustrator 28.1.0, SVG Export Plug-In . SVG Version: 6.00 Build 0)  -->
<svg version="1.1" id="Layer_1" xmlns="http://www.w3.org/2000/svg" xmlns:xlink="http://www.w3.org/1999/xlink" x="0px" y="0px"
	 viewBox="0 0 800 800" style="enable-background:new 0 0 800 800;" xml:space="preserve">
<style type="text/css">
	.st0{fill-rule:evenodd;clip-rule:evenodd;fill:#0F211C;}
</style>
<path class="st0" d="M533.3,200c-55.2,0-100,44.8-100,100c0,55.2,44.8,100,100,100c55.2,0,100-44.8,100-100
	C633.3,244.8,588.6,200,533.3,200z M366.7,300c0-92,74.6-166.7,166.7-166.7S700,208,700,300c0,44-17,84-44.9,113.8
	c61.4,20,108.8,59.5,139.1,104c10.4,15.2,6.4,36-8.8,46.3c-15.2,10.4-36,6.4-46.3-8.8c-32.5-47.7-91.9-88.6-172.5-88.6
	c-127.8,0-200,102.5-200,166.7c0,18.4-14.9,33.3-33.3,33.3c-18.4,0-33.3-14.9-33.3-33.3c0-23.1,5.3-47.7,15.4-71.9
	c-2.6-1.6-5-3.7-7.1-6.1c-27.4-31.1-69.8-55.3-125-55.3s-97.6,24.2-125,55.3c-12.2,13.8-33.2,15.2-47,3c-13.8-12.2-15.2-33.2-3-47
	c18.7-21.2,42.3-40.1,70.3-54C50.7,430.1,33.3,392.1,33.3,350c0-82.8,67.2-150,150-150s150,67.2,150,150
	c0,42.1-17.3,80.1-45.2,107.4c24.1,11.9,44.9,27.6,62.2,45.2c21.5-27.1,49.3-51.3,82.8-69.4C392.7,402.7,366.7,354.4,366.7,300z
	 M100,350c0-46,37.3-83.3,83.3-83.3s83.3,37.3,83.3,83.3c0,46-37.3,83.3-83.3,83.3S100,396,100,350z"/>
</svg>
