<?xml version="1.0" encoding="utf-8"?>
<!-- Generator: Adobe Illustrator 28.1.0, SVG Export Plug-In . SVG Version: 6.00 Build 0)  -->
<svg version="1.1" id="Layer_1" xmlns="http://www.w3.org/2000/svg" xmlns:xlink="http://www.w3.org/1999/xlink" x="0px" y="0px"
	 viewBox="0 0 800 800" style="enable-background:new 0 0 800 800;" xml:space="preserve">
<style type="text/css">
	.st0{fill:#0F211C;}
</style>
<path class="st0" d="M600,700H200c-55.2,0-100-44.9-100-100V200c0-55.2,44.9-100,100-100h400c55.2,0,100,44.9,100,100v400
	C700,655.2,655.2,700,600,700z M200,166.6c-18.4,0-33.4,15-33.4,33.4v400c0,18.4,15,33.4,33.4,33.4h400c18.4,0,33.4-15,33.4-33.4
	V200c0-18.4-15-33.4-33.4-33.4H200z"/>
<path class="st0" d="M138.6,149.9v501.5h524V149.9H138.6z M266.7,233.5c18.4,0,33.2,14.9,33.2,33.2s-14.9,33.2-33.2,33.2
	s-33.2-14.9-33.2-33.2S248.3,233.5,266.7,233.5z M266.7,366.8c18.4,0,33.2,14.9,33.2,33.2s-14.9,33.2-33.2,33.2
	s-33.2-14.9-33.2-33.2S248.3,366.8,266.7,366.8z M267.1,566.5c-18.4,0-33.2-14.9-33.2-33.2s14.9-33.2,33.2-33.2s33.2,14.9,33.2,33.2
	S285.5,566.5,267.1,566.5z M533.3,566.6H366.7c-18.4,0-33.3-14.9-33.3-33.3s14.9-33.3,33.3-33.3h166.6c18.4,0,33.3,14.9,33.3,33.3
	S551.7,566.6,533.3,566.6z M533.3,433.3H366.7c-18.4,0-33.3-14.9-33.3-33.3s14.9-33.3,33.3-33.3h166.6c18.4,0,33.3,14.9,33.3,33.3
	S551.7,433.3,533.3,433.3z M533.4,300H366.7c-18.4,0-33.3-14.9-33.3-33.3c0-18.4,14.9-33.3,33.3-33.3h166.7
	c18.4,0,33.3,14.9,33.3,33.3C566.7,285.1,551.8,300,533.4,300z"/>
</svg>
