<?xml version="1.0" encoding="UTF-8"?>
<svg id="Layer_2" data-name="Layer 2" xmlns="http://www.w3.org/2000/svg" viewBox="0 0 601.76 976.76">
  <defs>
    <style>
      .cls-1 {
        fill: #00eea5;
        stroke-width: 0px;
      }
    </style>
  </defs>
  <g id="Icon_dark" data-name="Icon dark">
    <g>
      <path class="cls-1" d="M282.73,405.59c10.41,0,20.83,0,31.24,0,1.8.35,3.6.81,5.41,1.04,10.68,1.37,21.48,2.1,32.03,4.12,65.73,12.6,120.82,44.19,163.93,95.27,58.46,69.27,79.14,149.36,63.39,238.37-10.69,60.44-39.02,112.21-84.07,153.82-76,70.19-165.32,92.99-265.85,69.81-54.7-12.61-100.9-41.01-139.13-82.03-42.51-45.61-67.55-99.48-74.83-161.5-.69-5.88-1.45-11.75-2.18-17.62,0-10.41,0-20.83,0-31.24.35-1.8.92-3.59,1.03-5.41.99-16.36,3.63-32.45,7.62-48.32,13.68-54.39,41.07-100.8,82.01-139.05,45.66-42.66,99.62-67.79,161.78-75.08,5.87-.69,11.73-1.45,17.6-2.18ZM281.34,674.4v-84.58c-1.05-.16-1.76-.35-2.47-.37-29.91-1.12-59.8-2.51-89.5-6.44-3.64-.48-4.67.91-5.42,4.27-6.14,27.27-9.72,54.85-10.73,82.77-.05,1.39.18,2.8.3,4.35h107.83ZM315.22,674.25h108.32c0-1.39.03-2.47,0-3.55-.89-27.92-4.62-55.47-10.56-82.75-.73-3.36-1.99-4.36-5.57-4.12-30.01,2.05-60.04,3.85-90.06,5.75-.68.04-1.35.36-2.12.57v84.09ZM46.93,674.6c2.2,0,3.67,0,5.15,0,27.31,0,54.62,0,81.93,0,5.72,0,5.7-.03,5.94-5.75,1.15-26.94,4.02-53.66,9.78-80.04.77-3.55,1.27-7.16,1.92-10.86-1.29-.32-1.98-.5-2.68-.67-20.75-4.88-41.55-9.58-62.22-14.8-4.06-1.03-5.5.07-7.32,3.26-12.81,22.41-21.99,46.19-27.47,71.39-2.64,12.13-4.64,24.36-5.03,37.47ZM549.9,708.24c-2.14-.13-3.76-.31-5.38-.31-27.33-.02-54.66-.02-81.99,0-5.59,0-5.53.04-5.82,5.86-1.29,26.2-4.1,52.21-9.71,77.87-.78,3.57-1.36,7.18-2,10.59,23.83,5.6,47.23,11.09,70.98,16.66,19.84-33.9,31.31-70.67,33.92-110.67ZM549.54,674.33c.08-1.22.19-1.78.15-2.32-2.64-37.86-13.62-73.16-32.35-106.13-1.48-2.61-3.07-2.5-5.42-1.88-10.77,2.8-21.52,5.71-32.37,8.16-11.19,2.52-22.49,4.54-34.21,6.88.3,2,.46,3.8.84,5.55,6.06,27.83,9.5,55.99,10.6,84.44.21,5.52.21,5.56,5.57,5.56,27.5.02,55.01.01,82.51,0,1.45,0,2.9-.15,4.69-.25ZM423.97,708.26h-108.49c-.19.85-.41,1.38-.41,1.9-.03,25.83.01,51.67-.11,77.5-.02,3.41,1.58,3.94,4.4,3.97,29.39.3,58.64,2.66,87.82,5.96,3.56.4,4.9-.38,5.49-4.01,2.62-16.3,5.93-32.5,8.2-48.84,1.66-11.91,2.09-23.99,3.1-36.49ZM281.31,791.11v-82.84h-107.74c-.16.87-.37,1.4-.35,1.93.97,28.29,4.59,56.23,10.89,83.84.82,3.6,2.7,3.32,5.19,3.03,28.82-3.34,57.73-5.14,86.74-5.55,1.64-.02,3.28-.25,5.27-.41ZM47.04,707.9c0,1.63-.06,2.55,0,3.46,2.74,36.67,13.25,70.98,31.07,103.12,1.81,3.27,3.66,3.2,6.72,2.48,20.22-4.73,40.47-9.34,60.75-13.84,6.17-1.37,6.25-1.15,4.88-7.42-5.91-27.1-9.21-54.53-10.48-82.22-.25-5.55-.22-5.57-6.08-5.57-26.02,0-52.03,0-78.05,0-2.76,0-5.53,0-8.81,0ZM315.29,555.99c18.29.78,80.56-3.46,87.39-6.14-5.87-13.24-11.2-26.72-17.71-39.6-10.12-20.04-22.8-38.34-40.35-52.78-8.64-7.11-18.06-12.89-29.34-15.75v114.27ZM281.2,938.92v-114.1c-29.18.26-57.77,1.99-86.75,5.22,2.48,6.53,4.51,12.5,6.97,18.29,10.29,24.25,22.69,47.21,41.35,66.24,10.8,11.01,23.02,19.82,38.43,24.35ZM281.45,441.64c-1.62.45-2.7.69-3.74,1.05-17.58,6.21-31.05,17.96-42.81,31.94-13.89,16.51-23.87,35.37-32.45,55.02-2.87,6.57-5.15,13.41-7.84,20.47,29.24,3.45,57.86,5.22,86.83,5.85v-114.33ZM315.41,824.88v114.05c11.55-3.28,21.19-9.05,29.93-16.4,17.22-14.49,29.79-32.62,39.79-52.51,6.31-12.54,11.52-25.63,17.59-39.29-29.72-3.54-58.32-5.36-87.31-5.84ZM207.06,926.5c.26-.28.53-.57.79-.85-1.1-1.47-2.2-2.94-3.3-4.42-1.22-1.64-2.46-3.26-3.66-4.91-17.11-23.69-29.26-49.86-38.49-77.45-1.18-3.54-2.62-4.61-6.3-3.81-15.4,3.35-30.85,6.45-46.27,9.7-3,.63-5.94,1.5-9.7,2.46,29.14,36.35,64.46,62.64,106.93,79.29ZM435.87,834.71c-11.15,33.31-25.57,64.05-47.5,91.42,28.8-5.71,94.81-54.21,106.45-78.37-19.53-4.32-38.85-8.6-58.94-13.05ZM391.78,456.86c-.22.31-.43.61-.65.92,4.3,6.26,8.83,12.38,12.87,18.8,12.91,20.5,22.92,42.39,30.41,65.41,1.1,3.39,2.41,4.77,6.28,3.91,16.83-3.74,33.72-7.17,50.58-10.75,1.19-.25,2.32-.82,4.04-1.45-28.27-34.78-62.51-60.4-103.53-76.84ZM102.81,532.54c2.05.59,3.62,1.13,5.23,1.48,15.57,3.46,31.15,6.92,46.74,10.3,6.19,1.34,6.26,1.27,8.21-4.5,9.63-28.51,22.76-55.22,40.85-79.38.69-.92,1.19-1.99,2.04-3.44-36.03,12.13-79.52,44.19-103.08,75.53Z"/>
      <path class="cls-1" d="M590.76,148.87c-11.69-24.99-29.62-41.25-54.8-49.69-19.4-6.5-39.52-8.5-59.81-5.94-5.27.67-7.98-.48-10.02-4.24-1.97-3.64-4.25-7.16-6.45-10.56-1.32-2.04-2.68-4.14-3.95-6.23-19.1-31.47-48.22-52.12-89.02-63.14-47.87-12.93-95.23-12.03-140.77,2.66-41.26,13.31-71,37.99-88.4,73.35-3.37,6.86-7.28,8.98-14.92,8.1-17.24-1.98-34.98-.43-52.74,4.62-28.38,8.06-48.68,25.3-60.34,51.24C2.17,165.47-.96,184.08.25,204.33c1.95,32.53,20.1,57.55,53.96,74.36,14.7,7.3,31.01,11.78,46.77,16.11,3.8,1.04,7.6,2.09,11.37,3.17,5.19,1.48,6.01,3.16,5.98,7.78-.06,9.82-.01,19.8.03,29.45.08,16.15.16,32.84-.27,49.23-.25,9.45,1.63,17.89,5.58,25.08l1.12,2.03,2.77-2.12c6.64-5.04,13.86-10.34,21.69-14.95l2.17-1.28c6.03-3.57,12.27-7.27,18.69-9.45l.3-.13c5.29-2.82,11.23-5.11,18.7-7.21,45.29-12.72,95.66-16.67,153.97-12.09,33.58,2.64,58.54,7.76,80.94,16.62,1.22.48,2.5,1.05,3.89,1.72l.15.06c9.47,3.66,19.41,8.18,31.27,14.21,2.13,1.08,4.28,2.16,6.43,3.23,3.38,1.69,6.88,3.44,10.28,5.21l2.05,1.07.77-2.18c2.11-5.99,3.02-12.6,2.78-20.21-.59-18.52-.46-37.4-.33-55.65.05-7.28.1-14.81.11-22.21,0-.33,0-.66,0-.99-.04-4.2.1-5.94,3.97-6.61,28.04-4.89,51.37-13.22,71.33-25.48,20.72-12.72,34.47-29.69,40.86-50.44,7.3-23.67,5-48.51-6.83-73.81ZM462.64,210.86c1.65-2.85,3.74-5.59,5.76-8.24l.97-1.27c6.42-8.47,6.17-18.23-.64-24.88-3.69-3.59-8.72-5.55-13.79-5.37-4.67.17-8.92,2.16-11.99,5.62-6.32,7.12-11.22,15.57-15.96,23.73l-.48.82c-2.38,4.1-3.29,5.34-6.61,4.29-31.83-10.04-64.89-12.84-93.03-14.26-3.81-.19-6.12-.92-7.29-2.28-1.1-1.28-1.44-3.5-1.07-6.98.47-4.48.25-9.08,0-13.05-.66-10.55-7.7-17.63-17.54-17.63h-.05c-11,.03-18.77,7.12-19.34,17.66v.17c-.26,4.74-.53,9.64.01,14.46.29,2.58.02,4.34-.82,5.38-.99,1.22-2.99,1.88-6.9,2.27-20.32,2.02-42.41,4.69-69.5,8.38-7.3.99-14.5,3.07-21.47,5.08l-1.19.34c-3.61,1.04-4.92.73-6.64-3.28-4.19-9.74-9.4-21.85-21.87-27.99-8.42-4.14-15.96-2.84-21.82,3.79-5.45,6.16-5.72,15.12-.69,22.3.6.86,1.27,1.64,1.92,2.39.4.46.79.92,1.17,1.4,10.01,12.72,9.94,14.41-1.14,25.91-8.19,8.5-10.1,12.46-15.31,33.22-18.34-4.1-37.17-8.56-53.15-19.89-15.45-10.95-25.15-26.81-27.31-44.65-2.15-17.72,3.44-35.31,15.74-49.54,8.57-9.92,20.42-16.32,35.21-19.03,6.72-1.23,13.58-1.84,20.79-1.84,8.79,0,18.1.91,28.32,2.75,16.61,2.98,24.27-1.76,29.27-18.14,8.44-27.64,27.35-48.21,56.2-61.13,40.71-18.24,86.1-20.92,134.9-7.96,24.98,6.64,45.65,19.87,61.43,39.32,8.58,10.58,14.48,21.94,18.05,34.73,2.79,9.99,10.64,15.13,21.58,14.07,4.25-.41,8.5-1.11,12.61-1.79,2.35-.39,4.77-.79,7.15-1.13,16.44-2.33,32.99-.55,49.17,5.31,4.95,1.79,10.11,5.05,15.34,9.7,22.27,19.77,26.6,52.78,17.92,73.28-5.88,13.88-17.57,24.97-33.83,32.09-8.78,3.84-18.28,6.62-27.47,9.3-4.26,1.25-8.67,2.53-12.97,3.92-1.91.62-3.32.69-3.96.21-.63-.47-.95-1.79-.91-3.72.28-12.28-4.98-22.89-16.08-32.44-6.23-5.36-6.76-8.39-2.69-15.43ZM444.39,334.4l.03,10.33c0,1.06.01,4.29-.81,4.84-.13.09-.91.47-3.54-.6-32.75-13.34-66.83-17.62-95.85-20.04-55.54-4.63-108.87-.78-158.53,11.46-6.01,1.48-11.85,3.8-17.5,6.05-1.96.78-3.92,1.56-5.89,2.3-4.1,1.55-5.47,1.53-5.9,1.23-.34-.23-.92-1.27-.96-5.55-.08-9.69-.06-19.55-.04-29.09,0-4.08.01-8.15.01-12.23l-.03-1.9c0-3.11.02-6.23.04-9.34.05-9.1.1-18.5-.16-27.76-.13-4.71,1.44-7.77,5.6-10.91,13.75-10.38,30.29-14.5,44.71-17.55,63.36-13.4,127.59-13.3,190.93.29,10.88,2.33,21.56,6.93,31.9,11.38,3.03,1.3,6.15,2.65,9.24,3.92,4.61,1.9,6.82,5.95,6.78,12.39-.17,23.59-.1,47.57-.04,70.76Z"/>
    </g>
  </g>
</svg>