<svg xmlns="http://www.w3.org/2000/svg" id="Layer_2" data-name="Layer 2" viewBox="0 0 921.22 453.35"><defs><style>.cls-1{fill:#0f211c;stroke-width:0}</style></defs><g id="Logo_light" data-name="Logo light"><path d="M131.23 188.25h14.5c.84.16 1.67.38 2.51.48 4.96.64 9.97.97 14.87 1.91 30.51 5.85 56.08 20.51 76.09 44.22 27.14 32.15 36.73 69.32 29.42 110.63-4.96 28.05-18.11 52.08-39.02 71.39-35.27 32.58-76.73 43.16-123.39 32.4-25.39-5.85-46.83-19.03-64.58-38.07-19.73-21.17-31.35-46.17-34.73-74.96-.32-2.73-.67-5.45-1.01-8.18v-14.5c.16-.84.43-1.67.48-2.51.46-7.59 1.68-15.06 3.54-22.43a130 130 0 0 1 38.06-64.54c21.19-19.8 46.24-31.46 75.09-34.85 2.73-.32 5.45-.67 8.17-1.01Zm-.65 124.76v-39.26c-.49-.08-.82-.16-1.15-.17-13.88-.52-27.75-1.16-41.54-2.99-1.69-.22-2.17.42-2.52 1.98a209.01 209.01 0 0 0-4.98 38.42c-.02.65.09 1.3.14 2.02h50.05Zm15.72-.07h50.27v-1.65a212.4 212.4 0 0 0-4.9-38.41c-.34-1.56-.92-2.02-2.59-1.91-13.93.95-27.87 1.79-41.8 2.67-.32.02-.63.17-.98.27v39.03Zm-124.52.17H62.2c2.65 0 2.64-.01 2.76-2.67.54-12.5 1.87-24.91 4.54-37.15.36-1.65.59-3.32.89-5.04l-1.25-.31c-9.63-2.27-19.29-4.45-28.88-6.87-1.88-.48-2.55.03-3.4 1.51a115.85 115.85 0 0 0-12.75 33.14 92.6 92.6 0 0 0-2.33 17.39Zm233.45 15.61c-.99-.06-1.75-.15-2.5-.15h-38.05c-2.59 0-2.57.02-2.7 2.72-.6 12.16-1.9 24.23-4.5 36.14-.36 1.66-.63 3.33-.93 4.92l32.94 7.73a115.04 115.04 0 0 0 15.74-51.36Zm-.17-15.74c.04-.57.09-.82.07-1.08a114.82 114.82 0 0 0-15.01-49.26c-.69-1.21-1.42-1.16-2.52-.87-5 1.3-9.99 2.65-15.02 3.79-5.19 1.17-10.44 2.11-15.88 3.19.14.93.21 1.76.39 2.58a224.87 224.87 0 0 1 4.92 39.19c.1 2.56.1 2.58 2.58 2.58h38.3c.67 0 1.34-.07 2.18-.12Zm-58.28 15.75h-50.36c-.09.4-.19.64-.19.88-.01 11.99 0 23.98-.05 35.97 0 1.58.73 1.83 2.04 1.84 13.64.14 27.22 1.24 40.76 2.77 1.65.19 2.28-.18 2.55-1.86 1.22-7.56 2.75-15.08 3.8-22.67.77-5.53.97-11.13 1.44-16.94Zm-66.22 38.45v-38.45H80.55c-.08.41-.17.65-.16.89a206.5 206.5 0 0 0 5.05 38.91c.38 1.67 1.25 1.54 2.41 1.41a395.39 395.39 0 0 1 40.26-2.57c.76-.01 1.52-.12 2.44-.19ZM21.83 328.56c0 .76-.03 1.18 0 1.6a115.33 115.33 0 0 0 14.42 47.86c.84 1.52 1.7 1.48 3.12 1.15 9.39-2.2 18.79-4.34 28.2-6.42 2.87-.64 2.9-.53 2.26-3.45a228.06 228.06 0 0 1-4.87-38.16c-.12-2.58-.1-2.59-2.82-2.59H21.82Zm124.51-70.5c8.49.36 37.39-1.61 40.56-2.85-2.73-6.15-5.2-12.4-8.22-18.38-4.7-9.3-10.58-17.8-18.73-24.5-4.01-3.3-8.38-5.98-13.62-7.31v53.04Zm-15.82 177.73v-52.96c-13.54.12-26.81.92-40.26 2.42 1.15 3.03 2.09 5.8 3.23 8.49 4.78 11.25 10.53 21.91 19.19 30.75 5.01 5.11 10.68 9.2 17.84 11.3Zm.11-230.81c-.75.21-1.25.32-1.73.49-8.16 2.88-14.41 8.34-19.87 14.83-6.45 7.66-11.08 16.42-15.06 25.53-1.33 3.05-2.39 6.22-3.64 9.5a415.69 415.69 0 0 0 40.3 2.71v-53.06Zm15.76 177.87v52.93a36.99 36.99 0 0 0 13.89-7.61c7.99-6.73 13.83-15.14 18.47-24.37 2.93-5.82 5.35-11.9 8.16-18.24a394.56 394.56 0 0 0-40.52-2.71Zm-50.28 47.17.37-.4-1.53-2.05c-.57-.76-1.14-1.51-1.7-2.28-7.94-11-13.58-23.14-17.86-35.95-.55-1.64-1.22-2.14-2.92-1.77-7.15 1.56-14.32 2.99-21.48 4.5-1.39.29-2.76.7-4.5 1.14 13.52 16.87 29.92 29.08 49.63 36.8Zm106.19-42.6c-5.18 15.46-11.87 29.73-22.05 42.43 13.37-2.65 44-25.16 49.41-36.37l-27.36-6.06Zm-20.46-175.38-.3.43c2 2.9 4.1 5.75 5.97 8.73a134.79 134.79 0 0 1 14.11 30.36c.51 1.57 1.12 2.21 2.92 1.81 7.81-1.74 15.65-3.33 23.48-4.99.55-.12 1.08-.38 1.87-.67-13.12-16.14-29.01-28.03-48.05-35.66ZM47.72 247.17c.95.27 1.68.52 2.43.69 7.23 1.6 14.46 3.21 21.69 4.78 2.87.62 2.91.59 3.81-2.09 4.47-13.23 10.56-25.63 18.96-36.84.32-.43.55-.92.95-1.6-16.72 5.63-36.91 20.51-47.84 35.06Z" class="cls-1"/><path d="M274.19 69.1c-5.43-11.6-13.75-19.14-25.44-23.06a62.12 62.12 0 0 0-27.76-2.76c-2.45.31-3.71-.23-4.65-1.97a77.01 77.01 0 0 0-2.99-4.9c-.61-.94-1.24-1.92-1.83-2.89-8.86-14.61-22.38-24.19-41.32-29.31-22.22-6-44.2-5.58-65.34 1.23-19.15 6.18-32.95 17.63-41.03 34.05-1.57 3.18-3.38 4.17-6.92 3.76-8-.92-16.24-.2-24.48 2.14-13.17 3.74-22.59 11.74-28 23.78C1.01 76.8-.44 85.44.12 94.84c.9 15.1 9.33 26.71 25.05 34.51 6.82 3.39 14.39 5.47 21.71 7.48 1.76.48 3.53.97 5.28 1.47 2.41.69 2.79 1.47 2.77 3.61-.03 4.56 0 9.19.02 13.67.04 7.49.07 15.24-.13 22.85a22.7 22.7 0 0 0 2.59 11.64l.52.94 1.29-.98c3.08-2.34 6.44-4.8 10.07-6.94l1.01-.6c2.8-1.66 5.7-3.37 8.68-4.38l.14-.06a42.68 42.68 0 0 1 8.68-3.35c21.02-5.9 44.4-7.74 71.46-5.61 15.58 1.22 27.17 3.6 37.57 7.71.57.22 1.16.49 1.81.8l.07.03c4.4 1.7 9.01 3.8 14.52 6.6l2.99 1.5c1.57.78 3.19 1.59 4.77 2.42l.95.5.36-1.01c.98-2.78 1.4-5.85 1.29-9.38-.27-8.6-.21-17.36-.15-25.83.02-3.38.05-6.87.05-10.31v-.46c-.02-1.95.05-2.75 1.84-3.07 13.01-2.27 23.84-6.14 33.11-11.83 9.62-5.9 16-13.78 18.97-23.41 3.39-10.99 2.32-22.51-3.17-34.26Zm-59.46 28.77a36.4 36.4 0 0 1 2.67-3.82l.45-.59c2.98-3.93 2.86-8.46-.3-11.55a8.75 8.75 0 0 0-6.4-2.49c-2.17.08-4.14 1-5.57 2.61-2.94 3.31-5.21 7.23-7.41 11.02l-.22.38c-1.1 1.9-1.53 2.48-3.07 1.99-14.77-4.66-30.12-5.96-43.18-6.62-1.77-.09-2.84-.42-3.38-1.06-.51-.6-.67-1.63-.5-3.24a37 37 0 0 0 0-6.05c-.3-4.9-3.57-8.18-8.14-8.18h-.02c-5.11.01-8.71 3.31-8.98 8.2v.08c-.12 2.2-.24 4.48 0 6.71.13 1.2 0 2.01-.38 2.5-.46.57-1.39.87-3.2 1.05-9.43.94-19.68 2.17-32.26 3.89-3.39.46-6.73 1.43-9.96 2.36l-.55.16c-1.67.48-2.28.34-3.08-1.52-1.94-4.52-4.36-10.14-10.15-12.99-3.91-1.92-7.41-1.32-10.13 1.76-2.53 2.86-2.66 7.02-.32 10.35.28.4.59.76.89 1.11l.54.65c4.65 5.9 4.61 6.69-.53 12.03-3.8 3.94-4.69 5.78-7.11 15.42-8.51-1.9-17.25-3.97-24.67-9.23-7.17-5.08-11.67-12.44-12.68-20.72-1-8.22 1.6-16.39 7.3-22.99 3.98-4.6 9.48-7.58 16.34-8.83a53.3 53.3 0 0 1 9.65-.86c4.08 0 8.4.42 13.15 1.28 7.71 1.38 11.27-.82 13.59-8.42 3.92-12.83 12.69-22.37 26.08-28.37 18.9-8.47 39.96-9.71 62.61-3.69 11.59 3.08 21.19 9.22 28.51 18.25a43.9 43.9 0 0 1 8.38 16.12c1.29 4.64 4.94 7.02 10.01 6.53 1.97-.19 3.94-.52 5.85-.83 1.09-.18 2.21-.37 3.32-.52a47.03 47.03 0 0 1 22.82 2.47c2.3.83 4.69 2.35 7.12 4.5 10.34 9.18 12.35 24.5 8.32 34.01-2.73 6.44-8.16 11.59-15.7 14.89-4.08 1.78-8.48 3.07-12.75 4.32a255.3 255.3 0 0 0-6.02 1.82c-.89.29-1.54.32-1.84.1-.29-.22-.44-.83-.42-1.73.13-5.7-2.31-10.62-7.46-15.06-2.89-2.49-3.14-3.89-1.25-7.16Zm-8.47 57.34V160c.01.49.02 1.99-.36 2.25-.06.04-.42.22-1.64-.28-15.2-6.19-31.02-8.18-44.49-9.3-25.78-2.15-50.53-.36-73.58 5.32-2.79.69-5.5 1.76-8.12 2.81l-2.73 1.07c-1.9.72-2.54.71-2.74.57-.16-.11-.43-.59-.44-2.57-.04-4.5-.03-9.07-.02-13.5v-10.89c.02-4.22.05-8.59-.07-12.88-.06-2.19.67-3.61 2.6-5.06 6.38-4.82 14.06-6.73 20.75-8.14a211.28 211.28 0 0 1 88.62.14c5.05 1.08 10.01 3.22 14.81 5.28 1.4.6 2.86 1.23 4.29 1.82 2.14.88 3.17 2.76 3.14 5.75-.08 10.95-.05 22.08-.02 32.84Zm495.3-.85c.77 3.6 1.29 7.38 2.4 10.98 5.12 16.65 19.31 23.19 37.95 17.67 11.9-3.53 20.22-11.17 25.31-22.3.95-2.08 1.07-4.68 1.07-7.05.07-26.17.04-52.35.04-78.52v-6.17h26.15v16.47c5.84-2.91 10.74-6.31 16.17-7.86 17.22-4.91 34.76 2.69 42.7 19.31a88.33 88.33 0 0 1 8.13 27.64c2.01 17.94 1.51 36.01-5.6 53.15-4.38 10.57-10.95 19.52-21.79 24.07-13.99 5.87-27.1 4.35-39-7.31-.15 2.2-.33 3.62-.33 5.04-.02 17.68-.31 35.37.15 53.04.15 5.77-1.79 7.96-7.15 8.87-6.23 1.06-12.34 2.85-19.17 4.49v-89.01c-2.32 2.71-3.57 4.21-4.87 5.67-10.86 12.17-23.87 20.99-40.46 22.13-16.43 1.14-31.91-3.9-41.38-21.2-1.24-2.26-2.3-4.63-3.24-6.52-6.37 6.05-12.2 12.71-19.12 17.95-19.93 15.08-47.33 13-62.7-4.52-3.92-4.47-6.74-9.89-9.58-14.15-7.03 6.3-13.82 13.49-21.7 19.18-11.69 8.43-25.05 11.4-39.48 8.4-17-3.54-27.17-14.77-31.58-30.5-7.39-26.36-5.08-52.24 8.95-76.16 10.94-18.66 31.64-25.63 51.25-18.36 8.62 3.19 14.09 9.34 16.54 18.02 5.36 18.95-2.09 37.41-19.96 46.61-8.17 4.21-17.56 6.09-26.42 8.94-1.78.57-3.68.78-5.45 1.13-1.97 20.21 14.32 34.93 34.27 30.49a53.6 53.6 0 0 0 18.79-8.26c7.34-5.17 11.6-12.07 10.84-22.44-1.45-19.65.21-39.15 10.77-56.77 12.29-20.51 33.85-24.18 51.92-17.22 13.79 5.31 20.73 24.4 14.16 37.64-3.14 6.32-12.58 7.03-16.44 1.08-.62-.96-.22-2.78.1-4.11.61-2.5 1.81-4.88 2.22-7.4 1.17-7.1-1.41-12.39-6.85-14.74-6.06-2.61-12.97-.79-17.33 4.58a41.26 41.26 0 0 0-9.29 23.34c-.89 12.88-1.49 25.89-.71 38.76.68 11.18 5.29 21.4 17.36 24.71 13.52 3.71 26.15 1.3 36.6-8.88 6.57-6.4 8.95-13.63 8.45-23.23-1.11-21.06 2.2-41.53 15.8-58.85 11.64-14.82 29.71-19.9 47.12-13.67 10.77 3.85 17.49 13.29 18.5 24.72 2.14 24.32-11.79 37.03-28.07 43.62-8.11 3.28-16.88 4.92-26.04 7.49Zm93.18-12.42c0 11.08-.2 22.16.15 33.23.08 2.58 1.42 5.82 3.3 7.52 9.1 8.27 21.16 6.11 28.35-4.72 5.28-7.96 7.84-16.91 8.8-26.26 1.43-13.98 1.95-27.95-3.48-41.39-2.47-6.11-6.05-11.31-12.05-14.43-11.55-6.01-25.05 2.03-25.06 14.88v31.16Zm-276.37.73c5.21-1.55 9.71-2.52 13.94-4.2 17.52-6.97 26.74-23.73 22.27-40.04-1.64-6-5.11-8.54-11.24-8.57-4.93-.02-8.61 2.22-11.54 5.91-10.71 13.44-12.74 29.33-13.43 46.9Zm183.11.01c5.11-1.52 9.63-2.5 13.87-4.19 17.23-6.86 26.34-22.78 22.6-39.07-1.84-8.02-7.98-11.8-15.57-8.89a19.42 19.42 0 0 0-8.09 6.14c-10.1 13.29-12.29 28.88-12.82 46.01Zm-318.11 120c-12.78-1.24-25.16 6.7-29.67 19.49-6.16 17.48-4.69 34.31 5.68 50.04.57.87 1.13 1.74 1.66 2.64.16.27.2.6.49 1.53-8.34.43-15.48-1.65-20.91-7.91-8.03-9.24-9.24-20.49-7.46-31.84 4.46-28.41 24.55-46.57 53.59-48.96 6.18-.51 12.42-.1 18.64-.21 3.04-.05 3.95 1.44 4.56 4.3 11 51.65 22.14 103.28 33.26 154.91.16.76.51 1.47 1.3 3.69 3.21-16.32 6.14-31.1 9.01-45.9 7.32-37.63 14.64-75.25 21.83-112.9.56-2.91 1.81-3.73 4.49-3.65 3.99.12 8 .17 11.98-.01 3.07-.14 4.03 1.14 4.66 4.09 10.98 51.48 22.12 102.93 33.24 154.38.2.91.64 1.77 1.39 3.79 4.87-24.89 9.51-48.54 14.11-72.2 5.6-28.81 11.14-57.64 16.83-86.43.26-1.32 1.76-3.29 2.84-3.4 4.08-.4 8.22-.16 13.12-.16-1.64 8-3.06 15.23-4.6 22.43-11.4 53.51-22.85 107.01-34.13 160.55-.62 2.94-1.45 4.14-4.57 4.05-7.12-.2-14.25-.19-21.36 0-3.06.08-4.06-1.04-4.7-4-8.91-40.81-17.98-81.59-27.02-122.37-.33-1.51-.8-2.99-1.58-5.91-2.4 11.19-4.53 21.08-6.64 30.98-6.94 32.58-13.84 65.17-20.95 97.72-.3 1.38-2.44 3.31-3.8 3.37-7.45.33-14.93.04-22.4.22-3.07.07-3.57-1.48-4.14-4-12.39-54.19-24.88-108.35-37.35-162.51l-1.38-5.81ZM673.1 406.63c-7.37 10.25-15.59 17.93-25.89 23.54-25.84 14.08-60.43 6.1-67.89-31.1-4.82-24.06-2.49-47.64 10-69.33 11.03-19.15 31.94-26.63 51.84-19.24 8.8 3.27 14.33 9.57 16.7 18.5 5.7 21.47-4.64 40.88-26.99 49.66-8.14 3.2-16.87 4.9-25.97 7.46 1 4.17 1.65 8.81 3.24 13.09 5.66 15.25 19.55 20.85 37.36 15.43 10.68-3.25 18.82-9.67 23.73-19.65a24.6 24.6 0 0 0 2.41-10.37c.36-38.65.54-77.29.61-115.94 0-4.28.5-6.68 5.73-6.7 5.14-.01 10.38-.95 15.4-2.17 4.5-1.09 4.99.83 4.96 4.46-.1 15.77-.04 31.54-.04 47.32v4.8c.85-.12 1.48 0 1.78-.27 16.01-13.86 49.71-8.89 58.64 17.99 9.73 29.3 7.21 58.02-11.34 83.63-13.13 18.12-38.47 24.1-56.77 14.89-8.51-4.28-12.95-11.69-15.88-20.3-.55-1.63-.95-3.3-1.64-5.71Zm25.21-40.07c0 9.7-.13 19.4.06 29.1.08 3.95.47 7.99 1.41 11.82 2.18 8.9 9.07 12.57 17.86 10.01 8.41-2.46 13.01-8.81 16.51-16.18 6.46-13.6 6.86-28.15 5.71-42.69-.76-9.5-3.33-18.73-9.09-26.69-7.53-10.42-19.1-12.13-28.78-3.87a11.28 11.28 0 0 0-3.52 7.34c-.39 10.38-.16 20.78-.16 31.17Zm-93.44 7.86c5.26-1.57 9.79-2.56 14.04-4.26 16.57-6.66 25.98-22.48 22.77-37.59-1.02-4.8-2.59-9.32-7.82-10.6-5.76-1.41-11.05.04-14.96 4.81-11.14 13.59-13.41 29.75-14.02 47.64ZM446.14 96.67c4.05 1.79 8.42 3.14 12.16 5.49 9.59 6.03 12.98 15.62 13.1 26.29.16 13.85-.39 27.7-.61 41.55-.05 3.29-.27 6.6.02 9.86.99 11.36 3.24 15.05 13.9 23.26-9.42 3.5-18.8 5.87-28.57 3.68-9.08-2.03-14.04-8.91-14.79-17.47-.88-10.09.12-20.35.29-30.53.18-10.69 1.45-21.51.23-32.05-1.82-15.66-12.69-22.62-28.19-19.84q-7.34 1.32-7.34 9.07v86.96h-27.67c-.08-1.75-.22-3.26-.22-4.77-.01-50.09.06-100.18-.12-150.27-.02-4.44 1.23-6.1 5.59-6.48 7.21-.64 14.38-1.8 22.26-2.82v57.83c8.87 1.31 16.18-.6 22.9-5.66 15.41-11.6 19.14-37.75 7.26-52.77-5.83-7.37-14.04-10.63-23.02-11.81-17.15-2.26-33.6-.9-47.87 10.39-10.8 8.54-16.7 19.73-17.96 33.28-.48 5.15-.78 10.53.15 15.56 1.22 6.6 3.73 12.97 5.65 19.28-14.22 1.55-27.4-10.39-28.24-26.18-1.21-22.75 10.52-38.21 28.51-49.6 17.34-10.98 36.55-15.74 57.13-13.15 8.87 1.12 17.97 2.15 26.37 4.99 30.11 10.16 39.04 37.76 19.12 65.12-2.89 3.97-6.72 7.27-10.02 10.79Zm428.53-9.14-8.06-.65V77.7l7.86-.63V43.15l25.99-3.64v37.85c5.53 0 10.52.19 15.48-.06 3.68-.19 4.33 1.57 4.3 4.7-.03 3.13-.25 5.43-4.37 5.22-4.83-.25-9.67-.06-14.88-.06-.14 1.88-.35 3.36-.36 4.85-.02 24.61-.05 49.22.03 73.82.01 3.09.42 6.22 1.05 9.26 1.57 7.56 5.23 10.14 12.95 9.37 1.86-.19 3.7-.57 5.5-.86 3.03 8.41-.58 15.95-9.06 19.35-17.63 7.09-33.6-3.22-35.76-23.23a129.2 129.2 0 0 1-.64-13.49c-.06-24.26-.03-48.52-.03-72.78v-5.91Z" class="cls-1"/></g></svg>