<?xml version="1.0" encoding="utf-8"?>
<!-- Generator: Adobe Illustrator 28.1.0, SVG Export Plug-In . SVG Version: 6.00 Build 0)  -->
<svg version="1.1" id="Layer_1" xmlns="http://www.w3.org/2000/svg" xmlns:xlink="http://www.w3.org/1999/xlink" x="0px" y="0px"
	 viewBox="0 0 800 800" style="enable-background:new 0 0 800 800;" xml:space="preserve">
<style type="text/css">
	.st0{fill:none;stroke:#0F211C;stroke-width:48;stroke-linecap:round;stroke-linejoin:round;stroke-miterlimit:128;}
</style>
<path class="st0" d="M581.4,624.1c73.7,2.7,135.7-54.8,138.6-128.5V304.6c-2.9-73.7-64.9-131.2-138.6-128.5H218.6
	C144.9,173.4,82.9,230.9,80,304.6v190.9c2.9,73.7,64.9,131.2,138.6,128.5H581.4z"/>
<path class="st0" d="M384.3,309.7l101.2,68.7c6.6,3.8,10.6,10.8,10.6,18.4c0,7.6-4,14.6-10.6,18.4l-101.2,75.2
	c-19.2,13-48.3,1.9-48.3-18.4v-144C336,307.8,365.1,296.7,384.3,309.7z"/>
</svg>
